<svg width="220" height="354" viewBox="0 0 220 354" fill="none" xmlns="http://www.w3.org/2000/svg">
<ellipse cx="135.118" cy="83.7025" rx="18.5" ry="28.5" transform="rotate(7.62419 135.118 83.7025)" fill="#EF9DB9"/>
<ellipse cx="135.118" cy="83.7025" rx="18.5" ry="28.5" transform="rotate(7.62419 135.118 83.7025)" fill="url(#paint0_linear)"/>
<path fill-rule="evenodd" clip-rule="evenodd" d="M109.092 80.927C108.847 80.927 108.517 80.9647 108.252 80.9689V81.0108C93.6265 81.1812 58.0702 84.2764 44.9909 116.147C38.472 107.482 44.9855 116.149 23.9597 96.207C23.9597 96.207 -2.42039 122.054 33.5727 140.41C46.0747 256.403 20.6045 300.976 94.6094 299.383C98.8256 299.292 103.454 299.353 108.252 299.467H108.378L110.561 299.508V299.425C115.364 299.311 119.984 299.25 124.204 299.341C198.209 300.934 172.739 256.361 185.241 140.368C221.234 122.012 194.854 96.1649 194.854 96.1649C173.828 116.108 180.341 107.44 173.823 116.105C160.302 83.1585 122.695 80.9268 109.092 80.9268L109.092 80.927Z" fill="#333333" stroke="black" stroke-width="5.81003"/>
<path fill-rule="evenodd" clip-rule="evenodd" d="M180.767 274.172C180.767 316.701 149.57 351.177 111.085 351.177C72.6007 351.177 41.4028 316.701 41.4028 274.172C41.4028 231.643 72.6007 197.167 111.085 197.167C149.57 197.167 180.767 231.643 180.767 274.172Z" fill="#93939F" stroke="black" stroke-width="2.70513"/>
<path fill-rule="evenodd" clip-rule="evenodd" d="M110.044 198.061C147.472 199.391 177.462 233.323 177.462 275.007C177.462 314.349 150.765 346.765 116.299 351.408C140.347 344.694 158.529 313.289 158.529 275.553C158.529 234.599 137.126 201.095 110.044 198.522V198.061Z" fill="#7F7F8D"/>
<path fill-rule="evenodd" clip-rule="evenodd" d="M109.863 196.921C72.4355 198.252 42.4458 232.183 42.4458 273.867C42.4458 313.209 69.1424 345.626 103.608 350.268C79.5604 343.554 61.3781 312.15 61.3781 274.413C61.3781 233.46 82.7818 199.955 109.863 197.383V196.921Z" fill="#C1C1C8"/>
<path fill-rule="evenodd" clip-rule="evenodd" d="M83.8361 109.465C66.561 109.465 52.5317 125.685 52.5317 145.673C52.5317 165.661 66.561 181.879 83.8361 181.879C93.9882 181.879 102.996 176.272 108.715 167.596C114.432 176.278 123.461 181.879 133.618 181.879C150.888 181.879 164.919 165.657 164.919 145.673C164.919 125.688 150.888 109.465 133.618 109.465C123.462 109.465 114.432 115.07 108.715 123.75C102.996 115.075 93.9863 109.465 83.8361 109.465Z" fill="white" stroke="black" stroke-width="5.48447"/>
<path opacity="0.3374" fill-rule="evenodd" clip-rule="evenodd" d="M149.19 112.965C149.572 115.263 149.753 117.649 149.753 120.075C149.753 140.716 135.289 157.448 117.453 157.448C106.962 157.448 97.6042 151.674 91.6995 142.707C85.7928 151.668 76.5179 157.448 66.0327 157.448C60.8312 157.448 55.9075 156.032 51.5518 153.503C54.4248 170.75 67.5462 183.809 83.2884 183.809C93.7736 183.809 103.092 177.985 108.999 169.024C114.903 177.991 124.217 183.809 134.709 183.809C152.545 183.809 167.052 167.033 167.052 146.392C167.052 131.766 159.773 119.11 149.19 112.965Z" fill="#A5A5A5"/>
<path fill-rule="evenodd" clip-rule="evenodd" d="M21.5865 105.61C21.5865 105.61 7.94138 121.426 31.6608 136.421C35.4688 132.732 36.0133 132.079 40.4926 128.527V125.673C35.0662 122.713 37.571 118.842 28.7214 107.841L21.5865 105.61Z" fill="url(#paint1_linear)" stroke="black" stroke-width="1.34331"/>
<path fill-rule="evenodd" clip-rule="evenodd" d="M198.588 106.313C198.588 106.313 212.233 122.129 188.513 137.124C184.705 133.435 184.161 132.782 179.681 129.23V126.376C185.108 123.416 182.603 119.545 191.453 108.544L198.588 106.313Z" fill="url(#paint2_linear)" stroke="black" stroke-width="1.34331"/>
<path fill-rule="evenodd" clip-rule="evenodd" d="M101.031 200.314C138.459 201.645 168.448 235.576 168.448 277.261C168.448 316.603 141.752 349.019 107.286 353.662C131.334 346.948 149.516 315.543 149.516 277.807C149.516 236.853 128.112 203.349 101.031 200.776V200.314Z" fill="#7F7F8D"/>
<path fill-rule="evenodd" clip-rule="evenodd" d="M109.376 171.086C97.8308 171.086 87.8736 176.777 83.3076 184.976C72.776 188.229 66.0125 193.331 66.0125 199.055C66.0125 200.632 66.5585 202.175 67.5237 203.631C66.7986 205.32 66.4322 207.079 66.4322 208.884C66.4322 221.927 86.4312 232.494 111.097 232.494C135.763 232.494 155.762 221.927 155.762 208.884C155.762 206.808 155.244 204.791 154.293 202.873C154.963 201.647 155.343 200.361 155.343 199.055C155.343 192.788 147.222 187.278 134.941 184.109C130.174 176.375 120.514 171.086 109.376 171.086Z" fill="url(#paint3_linear)" stroke="black" stroke-width="2.68662"/>
<path fill-rule="evenodd" clip-rule="evenodd" d="M125.727 178.97C125.727 187.681 118.665 194.743 109.954 194.743C101.243 194.743 94.1809 187.681 94.1809 178.97C94.1809 170.259 101.243 163.197 109.954 163.197C118.665 163.197 125.727 170.259 125.727 178.97Z" fill="black"/>
<path d="M109.852 213.225C107.404 201.086 118.204 209.971 125.5 208.5C132.704 210 139.035 215.24 141.483 227.378C143.931 239.516 140 250.549 132.704 252.02C125.408 253.492 112.3 225.363 109.852 213.225Z" fill="#EF9DB9"/>
<path d="M109.852 213.225C107.404 201.086 118.204 209.971 125.5 208.5C132.704 210 139.035 215.24 141.483 227.378C143.931 239.516 140 250.549 132.704 252.02C125.408 253.492 112.3 225.363 109.852 213.225Z" fill="url(#paint4_linear)"/>
<path d="M83 222.019C97.5986 204.763 117.367 206.143 144 217.519" stroke="black" stroke-width="5.37324"/>
<line x1="73.4142" y1="133.403" x2="95.7555" y2="155.744" stroke="black" stroke-width="4"/>
<line x1="95.7897" y1="133.414" x2="73.4484" y2="155.755" stroke="black" stroke-width="4"/>
<line x1="119.414" y1="133.403" x2="141.755" y2="155.744" stroke="black" stroke-width="4"/>
<line x1="141.79" y1="133.414" x2="119.448" y2="155.755" stroke="black" stroke-width="4"/>
<defs>
<linearGradient id="paint0_linear" x1="135.618" y1="63.7025" x2="135.618" y2="92.7025" gradientUnits="userSpaceOnUse">
<stop stop-color="#E87199"/>
<stop offset="1" stop-color="#E87199" stop-opacity="0"/>
</linearGradient>
<linearGradient id="paint1_linear" x1="17.0166" y1="695.253" x2="41.1612" y2="695.253" gradientUnits="userSpaceOnUse">
<stop stop-color="#F1AAC2"/>
<stop offset="1" stop-color="#E5638F"/>
</linearGradient>
<linearGradient id="paint2_linear" x1="203.157" y1="695.252" x2="179.013" y2="695.252" gradientUnits="userSpaceOnUse">
<stop stop-color="#F1AAC2"/>
<stop offset="1" stop-color="#E5638F"/>
</linearGradient>
<linearGradient id="paint3_linear" x1="90.5682" y1="182.623" x2="124.917" y2="239.799" gradientUnits="userSpaceOnUse">
<stop stop-color="#FFCEAE"/>
<stop offset="1" stop-color="#FFB280"/>
</linearGradient>
<linearGradient id="paint4_linear" x1="-63.26" y1="282.517" x2="-67.7698" y2="260.153" gradientUnits="userSpaceOnUse">
<stop offset="0.09375" stop-color="#E87199" stop-opacity="0"/>
<stop offset="0.734375" stop-color="#E87199"/>
</linearGradient>
</defs>
</svg>
