<svg width="220" height="354" viewBox="0 0 220 354" fill="none" xmlns="http://www.w3.org/2000/svg">
<path fill-rule="evenodd" clip-rule="evenodd" d="M109.454 81.0002C109.21 81.0002 108.88 81.0379 108.615 81.0421V81.084C93.989 81.2544 58.4327 84.3497 45.3534 116.22C38.8345 107.555 45.348 116.223 24.3222 96.2802C24.3222 96.2802 -2.05784 122.128 33.9353 140.484C46.4372 256.476 20.967 301.049 94.9719 299.456C99.1881 299.365 103.817 299.426 108.615 299.54H108.741L110.924 299.582V299.498C115.726 299.384 120.347 299.323 124.567 299.414C198.572 301.007 173.101 256.434 185.603 140.441C221.596 122.086 195.216 96.2382 195.216 96.2382C174.191 116.181 180.704 107.513 174.185 116.178C160.664 83.2318 123.058 81 109.454 81L109.454 81.0002Z" fill="#333333" stroke="black" stroke-width="5.81003"/>
<path fill-rule="evenodd" clip-rule="evenodd" d="M181.13 274.245C181.13 316.774 149.932 351.25 111.448 351.25C72.9632 351.25 41.7654 316.774 41.7654 274.245C41.7654 231.717 72.9632 197.24 111.448 197.24C149.932 197.24 181.13 231.717 181.13 274.245Z" fill="#93939F" stroke="black" stroke-width="2.70513"/>
<path fill-rule="evenodd" clip-rule="evenodd" d="M110.407 198.134C147.834 199.465 177.824 233.396 177.824 275.08C177.824 314.422 151.128 346.838 116.662 351.481C140.71 344.767 158.892 313.363 158.892 275.626C158.892 234.673 137.488 201.168 110.407 198.596V198.134Z" fill="#7F7F8D"/>
<path fill-rule="evenodd" clip-rule="evenodd" d="M110.226 196.994C72.7983 198.325 42.8086 232.256 42.8086 273.941C42.8086 313.282 69.5052 345.699 103.971 350.341C79.9231 343.627 61.7409 312.223 61.7409 274.486C61.7409 233.533 83.1446 200.028 110.226 197.456V196.994Z" fill="#C1C1C8"/>
<path fill-rule="evenodd" clip-rule="evenodd" d="M84.1987 109.538C66.9236 109.538 52.8943 125.758 52.8943 145.746C52.8943 165.735 66.9236 181.952 84.1987 181.952C94.3507 181.952 103.358 176.346 109.077 167.669C114.794 176.351 123.823 181.952 133.981 181.952C151.25 181.952 165.281 165.731 165.281 145.746C165.281 125.762 151.25 109.538 133.981 109.538C123.825 109.538 114.794 115.143 109.077 123.823C103.358 115.149 94.3488 109.538 84.1987 109.538Z" fill="white" stroke="black" stroke-width="5.48447"/>
<path opacity="0.3374" fill-rule="evenodd" clip-rule="evenodd" d="M149.552 113.038C149.934 115.336 150.116 117.722 150.116 120.148C150.116 140.789 135.652 157.521 117.816 157.521C107.324 157.521 97.9667 151.747 92.062 142.78C86.1553 151.741 76.8804 157.521 66.3952 157.521C61.1937 157.521 56.27 156.105 51.9143 153.576C54.7874 170.823 67.9087 183.882 83.651 183.882C94.1362 183.882 103.454 178.059 109.361 169.098C115.266 178.065 124.58 183.882 135.071 183.882C152.907 183.882 167.415 167.106 167.415 146.466C167.415 131.84 160.136 119.184 149.552 113.038Z" fill="#A5A5A5"/>
<path fill-rule="evenodd" clip-rule="evenodd" d="M107.099 148.196C107.099 153.201 103.039 157.258 98.0349 157.258C93.0305 157.258 88.9731 153.201 88.9731 148.196C88.9731 143.19 93.0324 139.133 98.0349 139.133C103.041 139.135 107.099 143.19 107.099 148.196Z" fill="black" stroke="black" stroke-width="3.47634"/>
<path fill-rule="evenodd" clip-rule="evenodd" d="M97.1168 145.022C97.1168 146.32 96.0633 147.371 94.7657 147.371C93.4681 147.371 92.4165 146.32 92.4165 145.022C92.4165 143.724 93.4681 142.671 94.7657 142.671C96.0633 142.671 97.1168 143.724 97.1168 145.022Z" fill="white"/>
<path fill-rule="evenodd" clip-rule="evenodd" d="M130.05 148.196C130.05 153.201 125.993 157.258 120.988 157.258C115.982 157.258 111.925 153.201 111.925 148.196C111.925 143.19 115.982 139.133 120.988 139.133C125.995 139.133 130.05 143.19 130.05 148.196Z" fill="black" stroke="black" stroke-width="3.47634"/>
<path fill-rule="evenodd" clip-rule="evenodd" d="M120.066 145.022C120.066 146.32 119.015 147.371 117.717 147.371C116.42 147.371 115.368 146.32 115.368 145.022C115.368 143.724 116.42 142.671 117.717 142.671C119.015 142.671 120.066 143.724 120.066 145.022Z" fill="white"/>
<path fill-rule="evenodd" clip-rule="evenodd" d="M21.9491 105.684C21.9491 105.684 8.30393 121.499 32.0234 136.494C35.8314 132.805 36.3758 132.152 40.8552 128.601V125.746C35.4287 122.786 37.9336 118.915 29.0839 107.914L21.9491 105.684Z" fill="url(#paint0_linear)" stroke="black" stroke-width="1.34331"/>
<path fill-rule="evenodd" clip-rule="evenodd" d="M198.95 106.387C198.95 106.387 212.595 122.202 188.876 137.198C185.068 133.508 184.523 132.856 180.044 129.304V126.449C185.47 123.49 182.966 119.619 191.815 108.617L198.95 106.387Z" fill="url(#paint1_linear)" stroke="black" stroke-width="1.34331"/>
<path fill-rule="evenodd" clip-rule="evenodd" d="M101.394 200.388C138.821 201.718 168.811 235.65 168.811 277.334C168.811 316.676 142.114 349.092 107.648 353.735C131.696 347.021 149.879 315.617 149.879 277.88C149.879 236.926 128.475 203.422 101.394 200.849V200.388Z" fill="#7F7F8D"/>
<path fill-rule="evenodd" clip-rule="evenodd" d="M109.739 171.159C98.1934 171.159 88.2362 176.85 83.6701 185.049C73.1385 188.302 66.375 193.404 66.375 199.128C66.375 200.705 66.9211 202.249 67.8862 203.704C67.1612 205.393 66.7948 207.152 66.7948 208.957C66.7948 222 86.7937 232.567 111.46 232.567C136.126 232.567 156.125 222 156.125 208.957C156.125 206.881 155.607 204.864 154.656 202.946C155.325 201.72 155.705 200.434 155.705 199.128C155.705 192.861 147.584 187.351 135.304 184.183C130.536 176.449 120.876 171.159 109.739 171.159Z" fill="url(#paint2_linear)" stroke="black" stroke-width="2.68662"/>
<path fill-rule="evenodd" clip-rule="evenodd" d="M126.089 179.043C126.089 187.755 119.028 194.816 110.316 194.816C101.605 194.816 94.5435 187.755 94.5435 179.043C94.5435 170.332 101.605 163.271 110.316 163.271C119.028 163.271 126.089 170.332 126.089 179.043Z" fill="black"/>
<path fill-rule="evenodd" clip-rule="evenodd" d="M91.1704 213.04H109.048V240.283H91.1704V213.04Z" fill="url(#paint3_linear)" stroke="black" stroke-width="3.04519"/>
<path fill-rule="evenodd" clip-rule="evenodd" d="M109.267 212.534H127.145V239.777H109.267V212.534Z" fill="url(#paint4_linear)" stroke="black" stroke-width="3.04519"/>
<path d="M74.2639 203.829C100.237 218.326 124.526 215.986 147.495 200.449" stroke="black" stroke-width="5.37324"/>
<defs>
<linearGradient id="paint0_linear" x1="17.3792" y1="695.326" x2="41.5238" y2="695.326" gradientUnits="userSpaceOnUse">
<stop stop-color="#F1AAC2"/>
<stop offset="1" stop-color="#E5638F"/>
</linearGradient>
<linearGradient id="paint1_linear" x1="203.52" y1="695.326" x2="179.375" y2="695.326" gradientUnits="userSpaceOnUse">
<stop stop-color="#F1AAC2"/>
<stop offset="1" stop-color="#E5638F"/>
</linearGradient>
<linearGradient id="paint2_linear" x1="90.9308" y1="182.696" x2="125.279" y2="239.873" gradientUnits="userSpaceOnUse">
<stop stop-color="#FFCEAE"/>
<stop offset="1" stop-color="#FFB280"/>
</linearGradient>
<linearGradient id="paint3_linear" x1="89.631" y1="695.326" x2="110.578" y2="695.326" gradientUnits="userSpaceOnUse">
<stop stop-color="#8A8A8A"/>
<stop offset="0.2857" stop-color="#F1F1F1"/>
<stop offset="1" stop-color="white"/>
</linearGradient>
<linearGradient id="paint4_linear" x1="107.724" y1="695.326" x2="128.671" y2="695.326" gradientUnits="userSpaceOnUse">
<stop stop-color="#8A8A8A"/>
<stop offset="0.2857" stop-color="#F1F1F1"/>
<stop offset="1" stop-color="white"/>
</linearGradient>
</defs>
</svg>
